<svg width="19" height="24" viewBox="0 0 19 24" fill="none" xmlns="http://www.w3.org/2000/svg">
<path d="M9.37495 12.7644C8.23394 12.7644 7.2716 12.3725 6.48795 11.5889C5.7043 10.8052 5.31248 9.84289 5.31248 8.70187C5.31248 7.56085 5.7043 6.59852 6.48795 5.81487C7.2716 5.03122 8.23394 4.6394 9.37495 4.6394C10.516 4.6394 11.4783 5.03122 12.262 5.81487C13.0456 6.59852 13.4374 7.56085 13.4374 8.70187C13.4374 9.84289 13.0456 10.8052 12.262 11.5889C11.4783 12.3725 10.516 12.7644 9.37495 12.7644ZM9.37495 10.8894C9.99675 10.8894 10.5168 10.6803 10.9351 10.262C11.3533 9.84371 11.5625 9.32367 11.5625 8.70187C11.5625 8.08007 11.3533 7.56004 10.9351 7.14176C10.5168 6.72349 9.99675 6.51435 9.37495 6.51435C8.75315 6.51435 8.23312 6.72349 7.81484 7.14176C7.39657 7.56004 7.18743 8.08007 7.18743 8.70187C7.18743 9.32367 7.39657 9.84371 7.81484 10.262C8.23312 10.6803 8.75315 10.8894 9.37495 10.8894ZM9.37495 23.6778C6.67144 22.9406 4.43307 21.3493 2.65984 18.9038C0.886614 16.4583 0 13.7243 0 10.7019V3.5096L9.37495 0L18.7499 3.5096V10.7019C18.7499 13.7243 17.8633 16.4583 16.0901 18.9038C14.3168 21.3493 12.0785 22.9406 9.37495 23.6778ZM9.37495 1.99514L1.87495 4.79562V10.7019C1.87495 11.891 2.04523 13.0408 2.38577 14.1514C2.72632 15.262 3.19948 16.298 3.80526 17.2596C4.6482 16.8301 5.53081 16.4944 6.45308 16.2524C7.37536 16.0104 8.34931 15.8894 9.37495 15.8894C10.4006 15.8894 11.3746 16.0104 12.2968 16.2524C13.2191 16.4944 14.1017 16.8301 14.9447 17.2596C15.5504 16.298 16.0236 15.262 16.3641 14.1514C16.7047 13.0408 16.875 11.891 16.875 10.7019V4.79562L9.37495 1.99514ZM9.37495 17.7644C8.56886 17.7644 7.79362 17.8517 7.04922 18.0264C6.30483 18.2011 5.6017 18.4462 4.93984 18.762C5.56004 19.4511 6.24233 20.0468 6.98672 20.5492C7.73112 21.0516 8.52719 21.4358 9.37495 21.7019C10.2227 21.4358 11.0168 21.0516 11.7572 20.5492C12.4976 20.0468 13.1779 19.4511 13.798 18.762C13.1362 18.4462 12.4351 18.2011 11.6947 18.0264C10.9543 17.8517 10.181 17.7644 9.37495 17.7644Z" fill="#E9C176"/>
</svg>
