<svg width="19" height="18" viewBox="0 0 19 18" fill="none" xmlns="http://www.w3.org/2000/svg">
<path d="M6.33333 17.5L4.75 14.8333L1.75 14.1667L2.04167 11.0833L0 8.75L2.04167 6.41667L1.75 3.33333L4.75 2.66667L6.33333 0L9.16667 1.20833L12 0L13.5833 2.66667L16.5833 3.33333L16.2917 6.41667L18.3333 8.75L16.2917 11.0833L16.5833 14.1667L13.5833 14.8333L12 17.5L9.16667 16.2917L6.33333 17.5ZM7.04167 15.375L9.16667 14.4583L11.3333 15.375L12.5 13.375L14.7917 12.8333L14.5833 10.5L16.125 8.75L14.5833 6.95833L14.7917 4.625L12.5 4.125L11.2917 2.125L9.16667 3.04167L7 2.125L5.83333 4.125L3.54167 4.625L3.75 6.95833L2.20833 8.75L3.75 10.5L3.54167 12.875L5.83333 13.375L7.04167 15.375ZM9.16667 12.9167C9.40278 12.9167 9.60069 12.8368 9.76042 12.6771C9.92014 12.5174 10 12.3194 10 12.0833C10 11.8472 9.92014 11.6493 9.76042 11.4896C9.60069 11.3299 9.40278 11.25 9.16667 11.25C8.93056 11.25 8.73264 11.3299 8.57292 11.4896C8.41319 11.6493 8.33333 11.8472 8.33333 12.0833C8.33333 12.3194 8.41319 12.5174 8.57292 12.6771C8.73264 12.8368 8.93056 12.9167 9.16667 12.9167ZM8.33333 9.58333H10V4.58333H8.33333V9.58333Z" fill="#FFB4AB"/>
</svg>
