<svg width="14" height="17" viewBox="0 0 14 17" fill="none" xmlns="http://www.w3.org/2000/svg">
<path d="M5.83333 9.16667H7.5V5H5.83333V9.16667ZM6.66667 11.6667C6.90278 11.6667 7.10069 11.5868 7.26042 11.4271C7.42014 11.2674 7.5 11.0694 7.5 10.8333C7.5 10.5972 7.42014 10.3993 7.26042 10.2396C7.10069 10.0799 6.90278 10 6.66667 10C6.43056 10 6.23264 10.0799 6.07292 10.2396C5.91319 10.3993 5.83333 10.5972 5.83333 10.8333C5.83333 11.0694 5.91319 11.2674 6.07292 11.4271C6.23264 11.5868 6.43056 11.6667 6.66667 11.6667ZM0 14.1667V12.5H1.66667V6.66667C1.66667 5.51389 2.01389 4.48958 2.70833 3.59375C3.40278 2.69792 4.30556 2.11111 5.41667 1.83333V1.25C5.41667 0.902778 5.53819 0.607639 5.78125 0.364583C6.02431 0.121528 6.31944 0 6.66667 0C7.01389 0 7.30903 0.121528 7.55208 0.364583C7.79514 0.607639 7.91667 0.902778 7.91667 1.25V1.83333C9.02778 2.11111 9.93056 2.69792 10.625 3.59375C11.3194 4.48958 11.6667 5.51389 11.6667 6.66667V12.5H13.3333V14.1667H0ZM6.66667 16.6667C6.20833 16.6667 5.81597 16.5035 5.48958 16.1771C5.16319 15.8507 5 15.4583 5 15H8.33333C8.33333 15.4583 8.17014 15.8507 7.84375 16.1771C7.51736 16.5035 7.125 16.6667 6.66667 16.6667ZM3.33333 12.5H10V6.66667C10 5.75 9.67361 4.96528 9.02083 4.3125C8.36806 3.65972 7.58333 3.33333 6.66667 3.33333C5.75 3.33333 4.96528 3.65972 4.3125 4.3125C3.65972 4.96528 3.33333 5.75 3.33333 6.66667V12.5Z" fill="#FF8C00"/>
</svg>
