<svg width="16" height="22" viewBox="0 0 16 22" fill="none" xmlns="http://www.w3.org/2000/svg">
<path d="M3.75 21.2499V18.7499H0V16.875H2.5V4.37495H0V2.5H3.75V0H5.62495V2.5H8.24516V0H10.1201V2.59615C11.2115 2.77563 12.1093 3.27202 12.8136 4.08531C13.5179 4.89861 13.8701 5.88058 13.8701 7.03122C13.8701 7.66744 13.7539 8.25558 13.5215 8.79564C13.2892 9.3357 12.9775 9.80045 12.5864 10.1899C13.3637 10.5472 13.9803 11.0829 14.4362 11.7968C14.8921 12.5108 15.1201 13.3181 15.1201 14.2187C15.1201 15.4975 14.6846 16.5724 13.8136 17.4434C12.9426 18.3144 11.8677 18.7499 10.5889 18.7499H10.1201V21.2499H8.24516V18.7499H5.62495V21.2499H3.75ZM4.37495 9.68748H9.33889C10.0905 9.68748 10.7211 9.43267 11.2307 8.92305C11.7403 8.41343 11.9952 7.78282 11.9952 7.03122C11.9952 6.27961 11.7403 5.649 11.2307 5.13938C10.7211 4.62976 10.0905 4.37495 9.33889 4.37495H4.37495V9.68748ZM4.37495 16.875H10.5889C11.3405 16.875 11.9711 16.6201 12.4807 16.1105C12.9903 15.6009 13.2452 14.9703 13.2452 14.2187C13.2452 13.4671 12.9903 12.8365 12.4807 12.3269C11.9711 11.8172 11.3405 11.5624 10.5889 11.5624H4.37495V16.875Z" fill="#E9C176"/>
</svg>
