<svg width="21" height="19" viewBox="0 0 21 19" fill="none" xmlns="http://www.w3.org/2000/svg">
<path d="M1.80768 18.9999C1.30255 18.9999 0.874992 18.8249 0.524995 18.4749C0.174998 18.1249 0 17.6974 0 17.1922V5.80768C0 5.30255 0.174998 4.87499 0.524995 4.525C0.874992 4.175 1.30255 4 1.80768 4H4.86152L6.71152 2H12.3076V3.49996H7.36535L5.53073 5.49996H1.80768C1.71793 5.49996 1.6442 5.52881 1.58651 5.58651C1.52881 5.6442 1.49996 5.71793 1.49996 5.80768V17.1922C1.49996 17.282 1.52881 17.3557 1.58651 17.4134C1.6442 17.4711 1.71793 17.5 1.80768 17.5H17.1922C17.282 17.5 17.3557 17.4711 17.4134 17.4134C17.4711 17.3557 17.5 17.282 17.5 17.1922V8.69229H18.9999V17.1922C18.9999 17.6974 18.8249 18.1249 18.4749 18.4749C18.1249 18.8249 17.6974 18.9999 17.1922 18.9999H1.80768ZM17.5 5.49996V3.49996H15.5V2H17.5V0H18.9999V2H20.9999V3.49996H18.9999V5.49996H17.5ZM9.49996 15.6153C10.6474 15.6153 11.6201 15.2163 12.4182 14.4182C13.2163 13.6201 13.6153 12.6474 13.6153 11.5C13.6153 10.3525 13.2163 9.37978 12.4182 8.58171C11.6201 7.78364 10.6474 7.38461 9.49996 7.38461C8.35254 7.38461 7.37979 7.78364 6.58171 8.58171C5.78364 9.37978 5.38461 10.3525 5.38461 11.5C5.38461 12.6474 5.78364 13.6201 6.58171 14.4182C7.37979 15.2163 8.35254 15.6153 9.49996 15.6153ZM9.49996 14.1154C8.7615 14.1154 8.14098 13.8641 7.63842 13.3615C7.13585 12.8589 6.88457 12.2384 6.88457 11.5C6.88457 10.7615 7.13585 10.141 7.63842 9.63842C8.14098 9.13585 8.7615 8.88457 9.49996 8.88457C10.2384 8.88457 10.8589 9.13585 11.3615 9.63842C11.8641 10.141 12.1154 10.7615 12.1154 11.5C12.1154 12.2384 11.8641 12.8589 11.3615 13.3615C10.8589 13.8641 10.2384 14.1154 9.49996 14.1154Z" fill="#D1C5B4"/>
</svg>
