<svg width="19" height="19" viewBox="0 0 19 19" fill="none" xmlns="http://www.w3.org/2000/svg">
<path d="M9.49996 18.9999C8.18715 18.9999 6.95286 18.7502 5.79709 18.2509C4.64133 17.7515 3.63588 17.0743 2.78076 16.2192C1.92563 15.364 1.24839 14.3586 0.749036 13.2028C0.249679 12.0471 0 10.8128 0 9.49996C0 8.18715 0.249679 6.95286 0.749036 5.79709C1.24839 4.64133 1.92563 3.63588 2.78076 2.78076C3.63588 1.92563 4.64133 1.24839 5.79709 0.749036C6.95286 0.249679 8.18715 0 9.49996 0C10.8128 0 12.0471 0.249679 13.2028 0.749036C14.3586 1.24839 15.364 1.92563 16.2192 2.78076C17.0743 3.63588 17.7515 4.64133 18.2509 5.79709C18.7502 6.95286 18.9999 8.18715 18.9999 9.49996V10.7192C18.9999 11.632 18.6865 12.407 18.0595 13.0442C17.4326 13.6813 16.6628 13.9999 15.7499 13.9999C15.1602 13.9999 14.6134 13.8557 14.1096 13.5672C13.6057 13.2788 13.2076 12.882 12.9153 12.3768C12.4833 12.8922 11.9727 13.2916 11.3836 13.5749C10.7945 13.8583 10.1666 13.9999 9.49996 13.9999C8.25126 13.9999 7.18908 13.5621 6.31345 12.6865C5.43782 11.8108 5 10.7487 5 9.49996C5 8.25126 5.43782 7.18908 6.31345 6.31345C7.18908 5.43782 8.25126 5 9.49996 5C10.7487 5 11.8108 5.43782 12.6865 6.31345C13.5621 7.18908 13.9999 8.25126 13.9999 9.49996V10.7192C13.9999 11.2102 14.1688 11.6298 14.5067 11.9778C14.8445 12.3259 15.2589 12.5 15.7499 12.5C16.241 12.5 16.6554 12.3259 16.9932 11.9778C17.3311 11.6298 17.5 11.2102 17.5 10.7192V9.49996C17.5 7.26663 16.725 5.37496 15.175 3.82496C13.625 2.27496 11.7333 1.49996 9.49996 1.49996C7.26663 1.49996 5.37496 2.27496 3.82496 3.82496C2.27496 5.37496 1.49996 7.26663 1.49996 9.49996C1.49996 11.7333 2.27496 13.625 3.82496 15.175C5.37496 16.725 7.26663 17.5 9.49996 17.5H14.5V18.9999H9.49996V18.9999M9.49996 12.5C10.3333 12.5 11.0416 12.2083 11.625 11.625C12.2083 11.0416 12.5 10.3333 12.5 9.49996C12.5 8.66663 12.2083 7.9583 11.625 7.37496C11.0416 6.79163 10.3333 6.49996 9.49996 6.49996C8.66663 6.49996 7.9583 6.79163 7.37496 7.37496C6.79163 7.9583 6.49996 8.66663 6.49996 9.49996C6.49996 10.3333 6.79163 11.0416 7.37496 11.625C7.9583 12.2083 8.66663 12.5 9.49996 12.5V12.5" fill="#E9C176"/>
</svg>
