<svg width="27" height="23" viewBox="0 0 27 23" fill="none" xmlns="http://www.w3.org/2000/svg">
<path d="M17.4375 22.5L12.125 17.1875L13.875 15.4375L17.4375 19L24.5 11.9375L26.25 13.6875L17.4375 22.5ZM12.5 8.75L22.5 2.5H2.5L12.5 8.75ZM12.5 11.25L2.5 5V17.5H8.9375L11.4375 20H2.5C1.8125 20 1.22396 19.7552 0.734375 19.2656C0.244792 18.776 0 18.1875 0 17.5V2.5C0 1.8125 0.244792 1.22396 0.734375 0.734375C1.22396 0.244792 1.8125 0 2.5 0H22.5C23.1875 0 23.776 0.244792 24.2656 0.734375C24.7552 1.22396 25 1.8125 25 2.5V7.9375L22.5 10.4375V5L12.5 11.25Z" fill="#E9C176"/>
</svg>
