<svg width="21" height="26" viewBox="0 0 21 26" fill="none" xmlns="http://www.w3.org/2000/svg">
<path d="M13.2632 0.356689L7.26318 24.8567" stroke="#E5E2E1" stroke-width="3"/>
<path d="M10.4638 15.1835C11.5969 15.1835 12.5592 14.787 13.3509 13.9938C14.1426 13.2006 14.5384 12.2375 14.5384 11.1044C14.5384 9.97129 14.1418 9.00891 13.3486 8.21725C12.5555 7.42559 11.5923 7.02976 10.4592 7.02976C9.32614 7.02976 8.36376 7.42635 7.5721 8.21951C6.78044 9.01268 6.38461 9.97582 6.38461 11.1089C6.38461 12.242 6.78119 13.2044 7.57436 13.9961C8.36753 14.7877 9.33066 15.1835 10.4638 15.1835ZM10.4615 13.8067C9.7115 13.8067 9.074 13.5442 8.549 13.0192C8.024 12.4942 7.7615 11.8567 7.7615 11.1067C7.7615 10.3567 8.024 9.71915 8.549 9.19415C9.074 8.66915 9.7115 8.40665 10.4615 8.40665C11.2115 8.40665 11.849 8.66915 12.374 9.19415C12.899 9.71915 13.1615 10.3567 13.1615 11.1067C13.1615 11.8567 12.899 12.4942 12.374 13.0192C11.849 13.5442 11.2115 13.8067 10.4615 13.8067ZM10.4629 18.1066C8.16325 18.1066 6.06793 17.4723 4.17691 16.2037C2.28589 14.9352 0.893589 13.2361 0 11.1067C0.893589 8.97718 2.28543 7.27815 4.17554 6.00956C6.06564 4.74098 8.1605 4.10669 10.4601 4.10669C12.7597 4.10669 14.8551 4.74098 16.7461 6.00956C18.6371 7.27815 20.0294 8.97718 20.923 11.1067C20.0294 13.2361 18.6376 14.9352 16.7475 16.2037C14.8574 17.4723 12.7625 18.1066 10.4629 18.1066ZM10.4615 16.6067C12.3448 16.6067 14.074 16.1108 15.649 15.1192C17.224 14.1275 18.4282 12.79 19.2615 11.1067C18.4282 9.42332 17.224 8.08582 15.649 7.09415C14.074 6.10249 12.3448 5.60665 10.4615 5.60665C8.57817 5.60665 6.849 6.10249 5.274 7.09415C3.699 8.08582 2.49483 9.42332 1.6615 11.1067C2.49483 12.79 3.699 14.1275 5.274 15.1192C6.849 16.1108 8.57817 16.6067 10.4615 16.6067Z" fill="#E5E2E1"/>
</svg>
