<svg width="16" height="16" viewBox="0 0 16 16" fill="none" xmlns="http://www.w3.org/2000/svg">
<path d="M7.29165 11.875H8.54162V7.0833H7.29165V11.875ZM7.91664 5.65704C8.10467 5.65704 8.26385 5.59227 8.39419 5.46272C8.52453 5.33318 8.5897 5.17266 8.5897 4.98116C8.5897 4.78966 8.52547 4.63008 8.397 4.50241C8.26854 4.37474 8.10935 4.31091 7.91945 4.31091C7.72954 4.31091 7.56942 4.37514 7.43908 4.50361C7.30874 4.63207 7.24357 4.79126 7.24357 4.98116C7.24357 5.17107 7.30874 5.33119 7.43908 5.46153C7.56942 5.59187 7.72861 5.65704 7.91664 5.65704ZM7.91803 15.8333C6.82309 15.8333 5.79389 15.6255 4.83044 15.2099C3.86699 14.7944 3.02893 14.2304 2.31624 13.5181C1.60355 12.8057 1.03934 11.968 0.623602 11.005C0.207867 10.042 0 9.01297 0 7.91803C0 6.82309 0.207775 5.79389 0.623325 4.83044C1.03888 3.86699 1.60284 3.02893 2.31521 2.31624C3.02758 1.60355 3.86528 1.03934 4.8283 0.623603C5.79132 0.207868 6.8203 0 7.91524 0C9.01018 0 10.0394 0.207775 11.0028 0.623325C11.9663 1.03888 12.8043 1.60284 13.517 2.31521C14.2297 3.02758 14.7939 3.86528 15.2097 4.8283C15.6254 5.79132 15.8333 6.8203 15.8333 7.91524C15.8333 9.01018 15.6255 10.0394 15.2099 11.0028C14.7944 11.9663 14.2304 12.8043 13.5181 13.517C12.8057 14.2297 11.968 14.7939 11.005 15.2097C10.042 15.6254 9.01297 15.8333 7.91803 15.8333ZM7.91664 14.5833C9.77775 14.5833 11.3541 13.9375 12.6458 12.6458C13.9375 11.3541 14.5833 9.77775 14.5833 7.91664C14.5833 6.05552 13.9375 4.47914 12.6458 3.18747C11.3541 1.8958 9.77775 1.24997 7.91664 1.24997C6.05552 1.24997 4.47914 1.8958 3.18747 3.18747C1.8958 4.47914 1.24997 6.05552 1.24997 7.91664C1.24997 9.77775 1.8958 11.3541 3.18747 12.6458C4.47914 13.9375 6.05552 14.5833 7.91664 14.5833Z" fill="#E9C176"/>
</svg>
