<svg width="19" height="19" viewBox="0 0 19 19" fill="none" xmlns="http://www.w3.org/2000/svg">
<path d="M6.32687 11.3461H15.673L12.5692 7.26921L10.1922 10.3077L8.623 8.36537L6.32687 11.3461V11.3461M5.30764 14.9999C4.80252 14.9999 4.37496 14.8249 4.02496 14.4749C3.67496 14.1249 3.49996 13.6974 3.49996 13.1922V1.80768C3.49996 1.30255 3.67496 0.874992 4.02496 0.524995C4.37496 0.174998 4.80252 0 5.30764 0H16.6922C17.1973 0 17.6249 0.174998 17.9749 0.524995C18.3249 0.874992 18.4999 1.30255 18.4999 1.80768V13.1922C18.4999 13.6974 18.3249 14.1249 17.9749 14.4749C17.6249 14.8249 17.1973 14.9999 16.6922 14.9999H5.30764V14.9999M5.30764 13.5H16.6922C16.7691 13.5 16.8397 13.4679 16.9038 13.4038C16.9679 13.3397 16.9999 13.2692 16.9999 13.1922V1.80768C16.9999 1.73075 16.9679 1.66023 16.9038 1.59612C16.8397 1.53202 16.7691 1.49996 16.6922 1.49996H5.30764C5.23071 1.49996 5.16019 1.53202 5.09609 1.59612C5.03198 1.66023 4.99993 1.73075 4.99993 1.80768V13.1922C4.99993 13.2692 5.03198 13.3397 5.09609 13.4038C5.16019 13.4679 5.23071 13.5 5.30764 13.5V13.5M1.80768 18.4999C1.30255 18.4999 0.874992 18.3249 0.524995 17.9749C0.174998 17.6249 0 17.1973 0 16.6922V3.80768H1.49996V16.6922C1.49996 16.7691 1.53202 16.8397 1.59612 16.9038C1.66023 16.9679 1.73075 16.9999 1.80768 16.9999H14.6922V18.4999H1.80768V18.4999M4.99993 1.49996V1.49996C4.99993 1.49996 4.99993 1.52881 4.99993 1.58651C4.99993 1.6442 4.99993 1.71793 4.99993 1.80768V13.1922C4.99993 13.282 4.99993 13.3557 4.99993 13.4134C4.99993 13.4711 4.99993 13.5 4.99993 13.5V13.5C4.99993 13.5 4.99993 13.4711 4.99993 13.4134C4.99993 13.3557 4.99993 13.282 4.99993 13.1922V1.80768C4.99993 1.71793 4.99993 1.6442 4.99993 1.58651C4.99993 1.52881 4.99993 1.49996 4.99993 1.49996V1.49996" fill="#E9C176"/>
</svg>
