<svg width="20" height="18" viewBox="0 0 20 18" fill="none" xmlns="http://www.w3.org/2000/svg">
<path d="M0 17.5V0H9.49996V4H19.2692V17.5H0V17.5M1.49996 16H4V13.5H1.49996V16V16M1.49996 12H4V9.49996H1.49996V12V12M1.49996 8H4V5.49996H1.49996V8V8M1.49996 4H4V1.49996H1.49996V4V4M5.49996 16H8V13.5H5.49996V16V16M5.49996 12H8V9.49996H5.49996V12V12M5.49996 8H8V5.49996H5.49996V8V8M5.49996 4H8V1.49996H5.49996V4V4M9.49996 16H17.7692V5.49996H9.49996V8H11.6923V9.49996H9.49996V12H11.6923V13.5H9.49996V16V16M13.8846 9.49996V8H15.3846V9.49996H13.8846V9.49996M13.8846 13.5V12H15.3846V13.5H13.8846V13.5" fill="#E9C176"/>
</svg>
