<svg width="16" height="16" viewBox="0 0 16 16" fill="none" xmlns="http://www.w3.org/2000/svg">
<path d="M5.90704 15.8333L5.58973 13.2948C5.36644 13.22 5.13753 13.1153 4.90302 12.9807C4.66851 12.8461 4.45883 12.7019 4.274 12.548L1.92305 13.5416L0 10.2083L2.03365 8.67146C2.01441 8.54752 2.00079 8.42306 1.99278 8.29805C1.98477 8.17305 1.98076 8.04858 1.98076 7.92465C1.98076 7.80606 1.98477 7.6856 1.99278 7.56327C2.00079 7.44093 2.01441 7.30712 2.03365 7.16181L0 5.62496L1.92305 2.3077L4.26599 3.29327C4.46685 3.13408 4.68133 2.98851 4.90943 2.85657C5.13753 2.72462 5.36163 2.61858 5.58172 2.53845L5.90704 0H9.75314L10.0704 2.54647C10.3204 2.63728 10.5467 2.74332 10.7491 2.86458C10.9516 2.98584 11.1559 3.12874 11.3621 3.29327L13.7371 2.3077L15.6602 5.62496L13.5945 7.18585C13.6244 7.32047 13.6407 7.44628 13.6434 7.56327C13.646 7.68025 13.6474 7.79804 13.6474 7.91664C13.6474 8.02989 13.6447 8.145 13.6394 8.26199C13.634 8.37898 13.6148 8.5128 13.5817 8.66344L15.6313 10.2083L13.7083 13.5416L11.3621 12.54C11.1559 12.7045 10.9455 12.8501 10.7307 12.9767C10.516 13.1033 10.2959 13.2067 10.0704 13.2868L9.75314 15.8333H5.90704ZM6.99676 14.5833H8.63457L8.93425 12.3509C9.35947 12.2398 9.74809 12.082 10.1001 11.8774C10.4521 11.6728 10.7916 11.4097 11.1185 11.0881L13.1891 11.9583L14.0096 10.5416L12.2019 9.17946C12.2713 8.96364 12.3186 8.7521 12.3437 8.54484C12.3688 8.33757 12.3814 8.12817 12.3814 7.91664C12.3814 7.69976 12.3688 7.49036 12.3437 7.28843C12.3186 7.08651 12.2713 6.88031 12.2019 6.66984L14.0256 5.29164L13.2051 3.87497L11.1105 4.75798C10.8317 4.45991 10.4976 4.19655 10.1081 3.96792C9.71871 3.73929 9.32474 3.57743 8.92624 3.48234L8.66342 1.24997H7.00957L6.73393 3.47433C6.30872 3.57476 5.91609 3.7286 5.55605 3.93587C5.19601 4.14313 4.85253 4.41022 4.5256 4.73715L2.45509 3.87497L1.63457 5.29164L3.43425 6.63298C3.36481 6.83063 3.3162 7.03629 3.28842 7.24997C3.26064 7.46364 3.24675 7.68854 3.24675 7.92465C3.24675 8.14153 3.26064 8.35414 3.28842 8.56247C3.3162 8.7708 3.36214 8.97646 3.42624 9.17946L1.63457 10.5416L2.45509 11.9583L4.51759 11.0833C4.83383 11.4081 5.17197 11.6741 5.53201 11.8814C5.89205 12.0886 6.29002 12.2478 6.72592 12.3589L6.99676 14.5833ZM7.8397 10.4166C8.53307 10.4166 9.12307 10.1733 9.60971 9.68665C10.0964 9.20001 10.3397 8.61 10.3397 7.91664C10.3397 7.22327 10.0964 6.63326 9.60971 6.14663C9.12307 5.65999 8.53307 5.41667 7.8397 5.41667C7.13779 5.41667 6.54565 5.65999 6.06328 6.14663C5.58091 6.63326 5.33973 7.22327 5.33973 7.91664C5.33973 8.61 5.58091 9.20001 6.06328 9.68665C6.54565 10.1733 7.13779 10.4166 7.8397 10.4166Z" fill="#E9C176"/>
</svg>
