<svg width="21" height="17" viewBox="0 0 21 17" fill="none" xmlns="http://www.w3.org/2000/svg">
<path d="M6 17L4.6 15.6L6.175 13.95C4.40833 13.75 2.9375 12.9875 1.7625 11.6625C0.5875 10.3375 0 8.78333 0 7C0 5.05 0.679167 3.39583 2.0375 2.0375C3.39583 0.679167 5.05 0 7 0H10V2H7C5.61667 2 4.4375 2.4875 3.4625 3.4625C2.4875 4.4375 2 5.61667 2 7C2 8.2 2.38333 9.25833 3.15 10.175C3.91667 11.0917 4.89167 11.6667 6.075 11.9L4.6 10.425L6 9L10 13L6 17ZM12 16V9H21V16H12ZM12 7V0H21V7H12ZM14 5H19V2H14V5Z" fill="#E9C176"/>
</svg>
