<svg width="14" height="21" viewBox="0 0 14 21" fill="none" xmlns="http://www.w3.org/2000/svg">
<path d="M1.80768 20.9999C1.30896 20.9999 0.883006 20.8233 0.529803 20.4701C0.176601 20.1169 0 19.691 0 19.1922V1.80768C0 1.30255 0.174998 0.874992 0.524995 0.524995C0.874992 0.174998 1.30255 0 1.80768 0H11.2307C11.7294 0 12.1554 0.176601 12.5086 0.529803C12.8618 0.883006 13.0384 1.30896 13.0384 1.80768V4.96537C13.3127 5.03717 13.5416 5.18043 13.7249 5.39517C13.9083 5.60991 13.9999 5.85959 13.9999 6.1442V8.02881C13.9999 8.31342 13.9083 8.5631 13.7249 8.77784C13.5416 8.99258 13.3127 9.13585 13.0384 9.20764V19.1922C13.0384 19.691 12.8618 20.1169 12.5086 20.4701C12.1554 20.8233 11.7294 20.9999 11.2307 20.9999H1.80768ZM1.80768 19.5H11.2307C11.3205 19.5 11.3942 19.4711 11.4519 19.4134C11.5096 19.3557 11.5384 19.282 11.5384 19.1922V1.80768C11.5384 1.71793 11.5096 1.6442 11.4519 1.58651C11.3942 1.52881 11.3205 1.49996 11.2307 1.49996H1.80768C1.71793 1.49996 1.6442 1.52881 1.58651 1.58651C1.52881 1.6442 1.49996 1.71793 1.49996 1.80768V19.1922C1.49996 19.282 1.52881 19.3557 1.58651 19.4134C1.6442 19.4711 1.71793 19.5 1.80768 19.5ZM1.49996 19.5C1.49996 19.5 1.49996 19.4711 1.49996 19.4134C1.49996 19.3557 1.49996 19.282 1.49996 19.1922V1.80768C1.49996 1.71793 1.49996 1.6442 1.49996 1.58651C1.49996 1.52881 1.49996 1.49996 1.49996 1.49996C1.49996 1.49996 1.49996 1.52881 1.49996 1.58651C1.49996 1.6442 1.49996 1.71793 1.49996 1.80768V19.1922C1.49996 19.282 1.49996 19.3557 1.49996 19.4134C1.49996 19.4711 1.49996 19.5 1.49996 19.5ZM5.54996 13.1538L10.1538 8.54996L9.09996 7.49614L5.54996 11.0461L4.14996 9.64614L3.09614 10.7L5.54996 13.1538Z" fill="#E9C176"/>
</svg>
