<svg width="42" height="30" viewBox="0 0 42 30" fill="none" xmlns="http://www.w3.org/2000/svg">
<path d="M9.99993 29.9999C7.23584 29.9999 4.87817 29.0411 2.9269 27.1234C0.975634 25.2058 0 22.8621 0 20.0922C0 17.6076 0.79936 15.4224 2.39808 13.5365C3.9968 11.6506 5.97949 10.5333 8.34614 10.1846C8.98715 7.19487 10.4903 4.75 12.8557 2.85C15.2211 0.95 17.9358 0 20.9999 0C24.6213 0 27.6933 1.2613 30.2159 3.78391C32.7386 6.30651 33.9999 9.37852 33.9999 12.9999V14H34.6153C36.723 14.1641 38.4806 15.0115 39.8883 16.5423C41.296 18.073 41.9999 19.8923 41.9999 21.9999C41.9999 24.2307 41.2306 26.1217 39.6922 27.673C38.1537 29.2242 36.2691 29.9999 34.0384 29.9999H23.1153C22.1051 29.9999 21.2499 29.6499 20.55 28.9499C19.85 28.2499 19.5 27.3947 19.5 26.3845V15.4306L15.7999 19.0691L13.6923 16.9807L20.9999 9.67305L28.3076 16.9807L26.1999 19.0691L22.4999 15.4306V26.3845C22.4999 26.5384 22.564 26.6794 22.6922 26.8076C22.8204 26.9358 22.9615 26.9999 23.1153 26.9999H33.9999C35.3999 26.9999 36.5833 26.5166 37.5499 25.5499C38.5166 24.5833 38.9999 23.3999 38.9999 21.9999C38.9999 20.5999 38.5166 19.4166 37.5499 18.4499C36.5833 17.4833 35.3999 16.9999 33.9999 16.9999H30.9999V12.9999C30.9999 10.2333 30.0249 7.87493 28.0749 5.92493C26.1249 3.97493 23.7666 2.99993 20.9999 2.99993C18.2333 2.99993 15.8749 3.97493 13.9249 5.92493C11.9749 7.87493 10.9999 10.2333 10.9999 12.9999H9.96146C8.06659 12.9999 6.43262 13.6833 5.05954 15.0499C3.68647 16.4166 2.99993 18.0666 2.99993 19.9999C2.99993 21.9333 3.68326 23.5833 5.04993 24.9499C6.41659 26.3166 8.06659 26.9999 9.99993 26.9999H14.9999V29.9999H9.99993Z" fill="#E9C176"/>
</svg>
