<svg width="23" height="23" viewBox="0 0 23 23" fill="none" xmlns="http://www.w3.org/2000/svg">
<path d="M17.25 17.9688V20.125" stroke="#E9C176" stroke-width="2" stroke-linecap="round" stroke-linejoin="round"/>
<path d="M5.75 17.9688V20.125" stroke="#E9C176" stroke-width="2" stroke-linecap="round" stroke-linejoin="round"/>
<path d="M19.4062 4.3125H3.59375C3.1968 4.3125 2.875 4.6343 2.875 5.03125V17.25C2.875 17.647 3.1968 17.9688 3.59375 17.9688H19.4062C19.8032 17.9688 20.125 17.647 20.125 17.25V5.03125C20.125 4.6343 19.8032 4.3125 19.4062 4.3125Z" stroke="#E9C176" stroke-width="2" stroke-linecap="round" stroke-linejoin="round"/>
<path d="M16.1719 11.5H20.125" stroke="#E9C176" stroke-width="2" stroke-linecap="round" stroke-linejoin="round"/>
<path d="M13.2969 14.375C14.8847 14.375 16.1719 13.0878 16.1719 11.5C16.1719 9.91218 14.8847 8.625 13.2969 8.625C11.7091 8.625 10.4219 9.91218 10.4219 11.5C10.4219 13.0878 11.7091 14.375 13.2969 14.375Z" stroke="#E9C176" stroke-width="2" stroke-linecap="round" stroke-linejoin="round"/>
</svg>
