<svg width="11" height="12" viewBox="0 0 11 12" fill="none" xmlns="http://www.w3.org/2000/svg">
<path d="M4.66667 11.6667C3.31528 11.3264 2.19965 10.551 1.31979 9.34062C0.439931 8.13021 0 6.78611 0 5.30833V1.75L4.66667 0L9.33333 1.75V5.30833C9.33333 5.40556 9.3309 5.50278 9.32604 5.6C9.32118 5.69722 9.31389 5.79444 9.30417 5.89167C9.21667 5.87222 9.12674 5.85764 9.03438 5.84792C8.94201 5.83819 8.84722 5.83333 8.75 5.83333C8.64306 5.83333 8.54097 5.83819 8.44375 5.84792C8.34653 5.85764 8.24444 5.87222 8.1375 5.89167C8.14722 5.79444 8.15451 5.69965 8.15938 5.60729C8.16424 5.51493 8.16667 5.41528 8.16667 5.30833V2.55208L4.66667 1.23958L1.16667 2.55208V5.30833C1.16667 6.48472 1.49722 7.55417 2.15833 8.51667C2.81944 9.47917 3.65556 10.1208 4.66667 10.4417C4.87083 10.3736 5.07014 10.291 5.26458 10.1938C5.45903 10.0965 5.64861 9.98472 5.83333 9.85833V11.2292C5.64861 11.3264 5.45903 11.4115 5.26458 11.4844C5.07014 11.5573 4.87083 11.6181 4.66667 11.6667ZM7.49583 11.6667C7.35972 11.6667 7.24306 11.6181 7.14583 11.5208C7.04861 11.4236 7 11.3069 7 11.1708V9.24583C7 9.10972 7.04861 8.99306 7.14583 8.89583C7.24306 8.79861 7.35972 8.75 7.49583 8.75H7.58333V8.16667C7.58333 7.84583 7.69757 7.57118 7.92604 7.34271C8.15451 7.11424 8.42917 7 8.75 7C9.07083 7 9.34549 7.11424 9.57396 7.34271C9.80243 7.57118 9.91667 7.84583 9.91667 8.16667V8.75H10.0042C10.1403 8.75 10.2569 8.79861 10.3542 8.89583C10.4514 8.99306 10.5 9.10972 10.5 9.24583V11.1708C10.5 11.3069 10.4514 11.4236 10.3542 11.5208C10.2569 11.6181 10.1403 11.6667 10.0042 11.6667H7.49583ZM8.16667 8.75H9.33333V8.16667C9.33333 8.00139 9.27743 7.86285 9.16562 7.75104C9.05382 7.63924 8.91528 7.58333 8.75 7.58333C8.58472 7.58333 8.44618 7.63924 8.33438 7.75104C8.22257 7.86285 8.16667 8.00139 8.16667 8.16667V8.75Z" fill="#53DBC9"/>
</svg>
