<svg fill="none" height="12" viewBox="0 0 23 12" width="23" xmlns="http://www.w3.org/2000/svg"><path d="m6 8c-.55 0-1.02083-.19583-1.4125-.5875s-.5875-.8625-.5875-1.4125.19583-1.02083.5875-1.4125.8625-.5875 1.4125-.5875 1.02083.19583 1.4125.5875.5875.8625.5875 1.4125-.19583 1.02083-.5875 1.4125-.8625.5875-1.4125.5875zm0 4c-1.66667 0-3.08333-.5833-4.25-1.75-1.166667-1.16667-1.75-2.58333-1.75-4.25s.583333-3.08333 1.75-4.25c1.16667-1.166667 2.58333-1.75 4.25-1.75 1.11667 0 2.12917.275 3.0375.825s1.6292 1.275 2.1625 2.175h8.8l3 3-4.5 4.5-2-1.5-2 1.5-2.125-1.5h-1.175c-.5333.9-1.25417 1.625-2.1625 2.175s-1.92083.825-3.0375.825zm0-2c.93333 0 1.75417-.28333 2.4625-.85s1.17917-1.28333 1.4125-2.15h3.125l1.45 1.025 2.05-1.525 1.775 1.375 1.875-1.875-1-1h-9.275c-.23333-.86667-.70417-1.58333-1.4125-2.15s-1.52917-.85-2.4625-.85c-1.1 0-2.04167.39167-2.825 1.175s-1.175 1.725-1.175 2.825.39167 2.04167 1.175 2.825 1.725 1.175 2.825 1.175z" fill="#53dbc9"/></svg>